<?xml version="1.0" encoding="UTF-8" standalone="no"?>
<!DOCTYPE svg PUBLIC "-//W3C//DTD SVG 1.1//EN" "http://www.w3.org/Graphics/SVG/1.1/DTD/svg11.dtd">
<svg width="100%" height="100%" viewBox="0 0 100 24" version="1.1" xmlns="http://www.w3.org/2000/svg" xmlns:xlink="http://www.w3.org/1999/xlink" xml:space="preserve" style="fill-rule:evenodd;clip-rule:evenodd;stroke-linejoin:round;stroke-miterlimit:1.41421;">
    <g transform="matrix(0.00592287,0,0,0.00592287,0.500004,0.397052)">
        <path d="M12736,2478C12929,2509 12996,2616 12996,2724C12996,2898 12874,3021 12426,3021C12202,3021 12044,2995 11937,2944C11835,2888 11789,2806 11784,2683L10053,2683C10058,3758 11265,3912 12370,3912C13984,3912 14707,3492 14707,2601C14707,1981 14259,1644 13536,1536L11820,1280C11677,1259 11632,1193 11632,1091C11632,937 11780,830 12207,830C12365,830 12528,850 12655,907C12787,958 12874,1050 12874,1199L14544,1199C14493,426 13826,1 12207,1C11026,1 10104,257 10104,1204C10104,1716 10394,2126 11097,2233L12737,2479L12736,2478Z" style="fill-rule:nonzero;"/>
        <path d="M1439,70L0,70L0,3838L4177,3838L4177,2863L1439,2863L1439,2441L3982,2441L3982,1466L1439,1466L1439,1045L4177,1045L4177,70L1439,70Z" style="fill-rule:nonzero;"/>
        <path d="M4455,3837L5799,3837L5799,1146L5809,1146L6597,3837L7720,3837L8507,1146L8517,1146L8517,3837L9861,3837L9861,70L7777,70L7163,2260L7153,2260L6539,70L4455,70L4455,3837Z" style="fill-rule:nonzero;"/>
        <rect x="15104" y="419" width="1256" height="1195" style="fill:rgb(254,254,254);"/>
        <path d="M14785,1962L16678,1962L16678,69L14785,69L14785,1962ZM16323,1193L15909,1193L15909,1607L15554,1607L15554,1193L15140,1193L15140,838L15554,838L15554,424L15909,424L15909,838L16323,838L16323,1193Z" style="fill:rgb(227,30,36);fill-rule:nonzero;"/>
    </g>
</svg>
