<svg xmlns="http://www.w3.org/2000/svg" width="957.551" height="224.37" viewBox="1 367.294 957.551 224.37"><path fill="#158B70" d="M897.551 380.75l-43 88h61l43-88M731 493.913l-43 88h61l43-88"/><g fill="#158B70"><path d="M557.7 380.75s-29.575 15.125-45.7 33.95c-10.6 11.3-11 11.8-17.8 21.8-21.8 32.5-33 76.9-26.602 105.8 2 9.102 8.102 21.8 13.4 27.9 20.5 23.6 69.2 28.5 109.1 10.898C613.4 570.8 635 550.6 648 526.9c6.4-11.802 8.9-10.802-27.4-10.802h-31.3l-3.9 4.802c-9.6 11.9-24.4 19.1-39.7 19.1-8.9 0-13.7-2.4-17.4-8.7-2.7-4.6-2.8-5.398-2.7-16.8.102-14.4 2.7-24.2 10.5-40.3 13.9-28.7 46.4-54.075 89.467-80.308C634.508 387.818 646 380.75 646 380.75h-88.3z"/><path d="M655.339 380.75l-43 88h61l43-88"/></g><g fill="#158B70"><path d="M397.5 367.6c-20.4 2.801-30.3 5.7-47 13.9-10.1 4.9-22.3 13-31.3 20.8-10.3 8.8-27.7 28.602-32.2 36.5-4.584 6.866-18.1 34.2-21 42.8-10.8 32.802-7.251 68.565 6.4 94.9l2.7 5.413h72.3l-5-3.313c-15.7-10.6-24.2-33.6-21.5-58.1 1.1-9.2 4.898-26.6 7.1-31.7.5-1.3 2.1-5.398 3.6-9.3 6.483-14.333 15.4-26.75 20-31.6 5.483-5.567 16.802-14.102 25.5-18.7 23.9-12.8 41.302-10.601 44.802 5.7.6 2.8.8 7.198.398 9.698l-.6 4.7 28.898-.6c24.802-.5 29-.8 30-2.2 3.4-4.6 4.802-25.4 2.5-36.101-1.398-6.6-6.016-14.565-9.266-18.898-3.398-4.529-12.034-13.3-21.534-17.201-8.898-3.6-23.398-6.199-38.3-6.699-7.082-.281-8.665-.516-16.498.001z"/><path d="M396.5 493.913l-43 88h61l43-88"/></g><path fill="#158B70" d="M211.1 380.75l-43 88h61l43-88M44 493.913l-43 88h61l43-88"/></svg>