<svg width="333" height="73" viewBox="0 0 333 73" fill="none" xmlns="http://www.w3.org/2000/svg">
<path d="M51.1151 28.4421C51.1151 23.9808 50.1684 20.5595 48.2777 18.1795C46.3844 15.7995 43.7377 14.6088 40.3364 14.6088C35.2777 14.6088 31.4937 16.9035 28.9857 21.4941C27.1151 16.9035 23.8417 14.6088 19.1644 14.6088C14.1471 14.6088 10.4284 16.8181 8.00441 21.2381V15.3728H0.480408V47.6955H8.69774V31.6301C8.69774 28.4421 9.35641 25.9781 10.6737 24.2341C11.9924 22.4928 13.7791 21.6208 16.0337 21.6208C19.7751 21.6208 21.6471 24.4901 21.6471 30.2275V47.6955H29.9484V31.6301C29.9484 28.4421 30.6057 25.9781 31.9217 24.2341C33.2377 22.4928 35.0217 21.6208 37.2737 21.6208C40.9671 21.6208 42.8137 24.4901 42.8137 30.2275V47.6955H51.1151V28.4421ZM87.0444 29.3221C87.0444 24.2275 85.9271 20.5008 83.6911 18.1435C81.4551 15.7875 77.9084 14.6088 73.0537 14.6088C69.3057 14.6088 65.5151 15.3728 61.6817 16.9008L61.8097 22.8248C65.1351 21.1101 68.2257 20.2528 71.0817 20.2528C76.4097 20.2528 79.0751 22.5408 79.0751 27.1168V27.5581H74.7964C63.4271 27.5581 57.7431 31.1541 57.7431 38.3448C57.7431 41.3248 58.7324 43.7728 60.7124 45.6875C62.6924 47.6021 65.3204 48.5581 68.6004 48.5581C73.1977 48.5581 76.8591 46.5421 79.5857 42.5075L79.7404 47.7288H87.0444V29.3221ZM76.8337 40.2781C75.3377 41.8701 73.4577 42.6648 71.1951 42.6648C69.5711 42.6648 68.2791 42.2208 67.3177 41.3288C66.3577 40.4381 65.8777 39.2915 65.8777 37.8915C65.8777 34.1568 69.2937 32.2888 76.1284 32.2888H79.0751V34.0075C79.0751 36.5968 78.3271 38.6875 76.8337 40.2781V40.2781ZM113.075 14.6088C108.74 14.6088 105.552 17.0008 103.511 21.7861V15.4381H96.0404V47.7288H104.342V32.5848C104.342 25.4701 107.146 21.9128 112.756 21.9128C113.776 21.9128 114.734 22.0741 115.626 22.3941L115.944 14.9408C114.754 14.7195 113.798 14.6088 113.075 14.6088V14.6088ZM138.256 14.6088C133.922 14.6088 130.734 17.0008 128.692 21.7861V15.4381H121.222V47.7288H129.522V32.5848C129.522 25.4701 132.327 21.9128 137.938 21.9128C138.956 21.9128 139.914 22.0741 140.806 22.3941L141.126 14.9408C139.935 14.7195 138.979 14.6088 138.256 14.6088ZM174.091 19.1315C171.022 16.1168 166.804 14.6088 161.436 14.6088C156.067 14.6088 151.86 16.1061 148.814 19.0995C145.767 22.0928 144.244 26.2435 144.244 31.5515C144.244 36.8168 145.778 40.9701 148.846 44.0048C151.914 47.0408 156.11 48.5581 161.436 48.5581C166.762 48.5581 170.968 47.0408 174.059 44.0048C177.148 40.9701 178.692 36.8168 178.692 31.5515C178.692 26.2861 177.158 22.1461 174.091 19.1315V19.1315ZM167.611 39.3995C166.031 41.3568 163.984 42.3328 161.468 42.3328C158.952 42.3328 156.904 41.3448 155.327 39.3688C153.748 37.3915 152.96 34.7648 152.96 31.4915C152.96 28.2181 153.759 25.5821 155.358 23.5821C156.958 21.5848 158.994 20.5848 161.468 20.5848C163.984 20.5848 166.031 21.5741 167.611 23.5515C169.187 25.5275 169.976 28.1755 169.976 31.4915C169.976 34.8075 169.187 37.4435 167.611 39.3995V39.3995ZM216.934 0.0821359H208.634V20.2621C206.124 16.4928 202.447 14.6088 197.6 14.6088C193.647 14.6088 190.416 16.1048 187.908 19.0968C185.4 22.0901 184.146 26.0701 184.146 31.0355C184.146 36.1301 185.443 40.2688 188.035 43.4515C190.63 46.6368 193.88 48.2261 197.792 48.2261C202.936 48.2261 206.83 45.8915 209.463 41.2221V47.7288H216.934V0.0821359ZM206.355 39.0355C204.892 40.9021 202.954 41.8355 200.538 41.8355C198.163 41.8355 196.276 40.9141 194.878 39.0675C193.478 37.2221 192.78 34.6648 192.78 31.3981C192.78 28.1741 193.488 25.6075 194.908 23.6981C196.33 21.7888 198.142 20.8341 200.347 20.8341C202.847 20.8341 204.84 21.7675 206.324 23.6341C207.808 25.5021 208.551 28.0888 208.551 31.3981C208.551 34.6221 207.819 37.1688 206.355 39.0355V39.0355ZM255.174 31.1795C255.174 25.9328 253.866 21.8581 251.251 18.9581C248.635 16.0581 244.987 14.6088 240.31 14.6088C235.544 14.6088 231.684 16.1275 228.728 19.1635C225.774 22.1995 224.295 26.1595 224.295 31.0421C224.295 36.5208 225.815 40.8088 228.855 43.9088C231.895 47.0088 236.115 48.5581 241.515 48.5581C245.682 48.5581 249.339 47.9221 252.486 46.6488V40.2781C249.514 41.8701 246.352 42.6648 243 42.6648C239.943 42.6648 237.468 41.8715 235.58 40.2835C233.692 38.6968 232.642 36.5301 232.43 33.7835H255.174V31.1795ZM232.43 28.6368C232.726 25.8875 233.574 23.7595 234.972 22.2581C236.37 20.7555 238.128 20.0035 240.248 20.0035C242.323 20.0035 244.019 20.7555 245.334 22.2581C246.644 23.7595 247.407 25.8875 247.62 28.6368H232.43ZM292.292 28.4928C292.292 19.2368 288.45 14.6088 280.763 14.6088C275.583 14.6088 271.76 16.8488 269.299 21.3248V15.4381H261.746V47.7288H270.046V31.6968C270.046 28.5155 270.731 26.0355 272.103 24.2528C273.474 22.4715 275.299 21.5808 277.579 21.5808C281.799 21.5808 283.908 24.4861 283.908 30.2968V47.7288H292.292V28.4928ZM320.391 41.8341C319.199 42.2235 318.138 42.4155 317.202 42.4155C315.459 42.4155 314.228 41.8875 313.506 40.8288C312.782 39.7701 312.422 38.0541 312.422 35.6835V21.5808H320.199V15.4381H312.422V4.8968L304.452 7.57947V15.4381H297.664V21.5808H304.038V36.1941C304.038 40.5141 304.859 43.6275 306.5 45.5341C308.143 47.4408 310.903 48.3928 314.782 48.3928C316.735 48.3928 318.647 48.1595 320.518 47.6941L320.391 41.8341ZM331.116 14.4635C330.172 13.4995 329.016 13.0168 327.655 13.0168C326.788 13.0168 325.999 13.2208 325.282 13.6275C324.564 14.0355 323.99 14.6061 323.558 15.3408C323.088 16.1368 322.854 16.9728 322.854 17.8488C322.854 19.1501 323.314 20.2688 324.234 21.2075C325.188 22.1808 326.331 22.6675 327.655 22.6675C328.964 22.6675 330.095 22.2021 331.052 21.2728C332.006 20.3448 332.483 19.2021 332.483 17.8488C332.483 16.5208 332.027 15.3928 331.116 14.4635V14.4635ZM330.512 20.6955C329.688 21.4835 328.735 21.8781 327.655 21.8781C326.558 21.8781 325.606 21.4701 324.799 20.6555C324.028 19.8755 323.643 18.9355 323.643 17.8355C323.643 16.7275 324.051 15.7648 324.866 14.9488C325.627 14.1875 326.562 13.8061 327.668 13.8061C328.811 13.8061 329.768 14.2021 330.539 14.9955C331.308 15.7901 331.695 16.7635 331.695 17.9155C331.695 19.0141 331.3 19.9408 330.512 20.6955V20.6955ZM328.888 18.0328C329.667 17.8395 330.056 17.3648 330.056 16.6128C330.056 15.5848 329.291 15.0715 327.762 15.0715H325.655V20.4235H326.963V18.2328H327.6L328.623 20.4235H330.07L328.888 18.0328ZM327.602 17.4555H326.963V15.9021H327.535C328.316 15.9021 328.706 16.1675 328.706 16.6981C328.706 17.2035 328.339 17.4555 327.602 17.4555" fill="#DC0021"/>
<path d="M242.366 63.9637C242.769 63.9637 243.079 63.8584 243.079 63.3771C243.079 62.9957 242.859 62.8131 242.499 62.8131L242.351 62.8264C242.211 62.8264 242.231 62.9891 242.231 63.0877V63.9571L242.366 63.9637ZM241.738 63.0104C241.738 62.8344 241.717 62.8131 241.539 62.8064H241.434V62.6571H242.514C243.297 62.6571 243.573 62.8131 243.573 63.3144C243.573 63.7304 243.255 63.9784 242.881 64.0411C243.177 64.1051 243.319 64.4224 243.433 64.6691C243.566 64.9664 243.622 65.1851 243.891 65.2131V65.3611H243.403C243.305 65.3331 243.255 65.3331 243.185 65.2411C242.987 64.9797 242.782 64.3451 242.677 64.2317C242.578 64.1264 242.458 64.1397 242.338 64.1397H242.231V64.9944C242.239 65.1491 242.253 65.2064 242.415 65.2064L242.535 65.2131V65.3611H241.426V65.2131H241.526C241.689 65.1997 241.738 65.2064 241.738 65.0224V63.0104ZM240.481 64.0691C240.481 65.2477 241.426 66.2091 242.571 66.2091C243.715 66.2091 244.646 65.2477 244.646 64.0691C244.646 62.9051 243.715 61.9451 242.571 61.9451C241.426 61.9451 240.481 62.9051 240.481 64.0691V64.0691ZM240.093 64.0691C240.093 62.6851 241.201 61.5557 242.571 61.5557C243.933 61.5557 245.034 62.6851 245.034 64.0691C245.034 65.4677 243.933 66.5971 242.571 66.5971C241.201 66.5971 240.093 65.4677 240.093 64.0691" fill="#231F20"/>
<path d="M141.77 69.7235C141.77 71.0995 141.753 71.2235 143.448 71.3115V71.8408C142.6 71.7888 141.77 71.7528 140.905 71.7528C140.041 71.7528 139.212 71.7888 138.417 71.8408V71.3115C140.112 71.2235 140.093 71.0995 140.093 69.7235V65.6288H133.033V69.7235C133.033 71.0995 133.017 71.2235 134.71 71.3115V71.8408C133.864 71.7888 133.033 71.7528 132.169 71.7528C131.304 71.7528 130.474 71.7888 129.681 71.8408V71.3115C131.374 71.2235 131.357 71.0995 131.357 69.7235V61.6221C131.357 60.2448 131.374 60.1221 129.681 60.0341V59.5048C130.474 59.5568 131.304 59.5928 132.169 59.5928C133.033 59.5928 133.864 59.5568 134.71 59.5048V60.0341C133.017 60.1221 133.033 60.2448 133.033 61.6221V64.8875H140.093V61.6221C140.093 60.2448 140.112 60.1221 138.417 60.0341V59.5048C139.212 59.5568 140.041 59.5928 140.905 59.5928C141.77 59.5928 142.6 59.5568 143.448 59.5048V60.0341C141.753 60.1221 141.77 60.2448 141.77 61.6221V69.7235Z" fill="#231F20"/>
<path d="M146.748 69.8895C146.748 70.3975 146.761 70.7361 146.817 71.1041C147.34 71.1735 148.06 71.1735 148.737 71.1735C149.5 71.1735 150.277 71.1455 151.012 70.9335C151.081 70.7228 151.153 70.4681 151.181 70.2148L151.308 69.4375H151.773C151.719 69.7335 151.633 70.1295 151.633 70.5815V71.7535C151.111 71.8241 150.164 71.8095 149.289 71.8241C148.456 71.7815 147.608 71.7535 146.748 71.7535C145.885 71.7535 145.053 71.7815 144.192 71.8241V71.4001C144.899 71.3721 145.405 71.0748 145.405 70.1295V63.6481C145.405 62.5468 145.42 62.4481 144.064 62.3775V61.9535C144.927 61.9961 145.773 62.0241 146.649 62.0241C147.524 62.0241 148.385 61.9961 149.232 61.9535C150.121 61.9681 151.096 61.9535 151.576 62.0241C151.42 62.4908 151.364 62.9428 151.351 63.3948C151.351 63.6908 151.308 63.9308 151.308 64.2268H150.871C150.856 63.6775 150.771 63.2815 150.673 62.8441C149.995 62.6321 149.275 62.6041 148.568 62.6041C147.948 62.6041 147.284 62.6041 146.817 62.6748C146.761 63.0268 146.748 63.3521 146.748 63.8455V66.4868C149.825 66.5148 150.023 66.6841 150.037 65.3001H150.503V68.5615H150.037C150.037 66.9668 149.939 67.0508 146.748 67.1641V69.8895Z" fill="#231F20"/>
<path d="M161.547 70.3549V63.3376C161.547 62.5189 161.292 62.3909 160.431 62.3909L160.206 62.3776V61.9536C160.77 61.9963 161.335 62.0243 161.9 62.0243C162.464 62.0243 163.03 61.9963 163.58 61.9536V62.3776L163.354 62.3909C162.464 62.3909 162.196 62.5189 162.196 63.3376V71.5123L162.239 72.0349L161.123 71.8376L154.303 63.5496V70.4403C154.303 71.2589 154.572 71.3856 155.462 71.3856L155.687 71.4003V71.8229C155.136 71.7816 154.572 71.7536 154.008 71.7536C153.443 71.7536 152.878 71.7816 152.312 71.8229V71.4003L152.539 71.3856C153.4 71.3856 153.654 71.2589 153.654 70.4403V63.3376C153.654 62.5189 153.428 62.3909 152.638 62.3776H152.439V61.9536C152.848 61.9963 153.244 62.0243 153.668 62.0243C154.078 62.0243 154.472 61.9963 154.883 61.9536L161.547 70.3549Z" fill="#231F20"/>
<path d="M165.433 63.6484C165.433 62.5471 165.448 62.4484 164.092 62.3777V61.9537C164.882 61.9964 165.701 62.0244 166.534 62.0244C167.368 62.0244 168.186 61.9964 169.005 61.9537C170.954 61.8551 171.858 62.9137 171.858 64.1004C171.858 65.6391 170.474 66.5564 169.105 66.8257L172.31 71.0044C172.534 71.2724 172.832 71.3577 173.114 71.4004V71.8231C172.804 71.7817 172.478 71.7524 172.154 71.7524C171.829 71.7524 171.518 71.7817 171.194 71.8231C170.969 71.5271 170.813 71.2724 170.614 71.0324L167.254 66.7124L167.31 66.5004C167.748 66.5284 168.186 66.5151 168.61 66.4444C169.598 66.2751 170.446 65.5124 170.446 64.4671C170.446 62.9417 169.316 62.4911 168.27 62.4911C167.776 62.4911 167.24 62.5617 166.858 62.6737C166.774 62.9137 166.774 63.2111 166.774 63.6484V70.1284C166.774 71.2311 166.76 71.3297 168.116 71.4004V71.8231C167.438 71.7817 166.774 71.7524 166.082 71.7524C165.39 71.7524 164.726 71.7817 164.092 71.8231V71.4004C165.448 71.3297 165.433 71.2311 165.433 70.1284V63.6484Z" fill="#231F20"/>
<path d="M177.34 66.9384L178.794 64.6371C179.331 63.7331 179.852 62.8584 180.319 61.9544H181.448V62.1664C180.263 63.5357 178.554 65.9224 177.975 67.1784C177.806 67.5451 177.776 67.8984 177.776 68.2371V70.1291C177.776 71.2304 177.764 71.3291 179.119 71.3997V71.8237C178.442 71.7811 177.776 71.7531 177.086 71.7531C176.394 71.7531 175.73 71.7811 175.095 71.8237V71.3997C176.45 71.3291 176.436 71.2304 176.436 70.1291V68.0544C176.436 67.9411 176.436 67.7717 176.364 67.6157L174.671 64.6504C174.204 63.8464 173.344 62.4624 172.342 62.5757V62.1664L173.838 61.8691C174.247 61.7984 174.459 62.0384 174.699 62.3357C174.926 62.6317 175.123 62.9277 175.32 63.2531L177.34 66.9384Z" fill="#231F20"/>
<path d="M191.565 62.4692C191.565 61.7985 191.565 61.3399 191.387 61.0572C190.911 60.3159 189.658 60.0332 188.829 60.0332C187.381 60.0332 186.146 61.0399 186.146 62.5572C186.146 66.3879 193.17 63.2105 193.17 67.6412C193.17 70.6585 190.47 72.1065 187.841 72.1065C186.782 72.1065 185.793 71.8412 184.822 71.4359C184.893 70.7652 184.927 69.9172 184.946 69.2292V68.7345H185.545V69.5652C185.545 69.9532 185.581 70.2879 185.793 70.4825C186.499 71.0999 187.629 71.2945 188.529 71.2945C190.118 71.2945 191.67 70.3585 191.67 68.6119C191.67 64.3399 184.681 68.3292 184.681 63.1932C184.681 60.7745 186.729 59.2399 189.005 59.2399C190.206 59.2399 191.317 59.6279 192.429 60.0519C192.375 60.3345 192.306 60.6159 192.287 60.8985C192.253 61.4279 192.182 61.9399 192.163 62.4692H191.565Z" fill="#231F20"/>
<path d="M202.569 71.2024C201.68 71.7104 200.268 72.0357 199.379 72.0357C196.259 72.0357 193.66 70.1997 193.66 66.8544C193.66 63.5784 196.3 61.7424 199.096 61.7424C200.339 61.7424 201.581 62.0384 202.768 62.3771C202.627 63.0837 202.541 63.7891 202.457 64.4957H202.048C202.005 63.5917 202.231 63.2664 201.399 62.8571C200.819 62.5744 200.141 62.3357 199.125 62.3357C196.796 62.3357 195.185 63.9877 195.185 66.5424C195.185 69.3664 197.021 71.3157 199.859 71.3157C200.876 71.3157 201.879 70.9904 202.725 70.4264L202.853 70.5677L202.569 71.2024Z" fill="#231F20"/>
<path d="M213.235 70.1291C213.235 71.2304 213.22 71.3291 214.576 71.3997V71.8237C213.899 71.7811 213.235 71.7531 212.544 71.7531C211.852 71.7531 211.187 71.7811 210.553 71.8237V71.3997C211.908 71.3291 211.895 71.2304 211.895 70.1291V66.8544H206.245V70.1291C206.245 71.2304 206.231 71.3291 207.587 71.3997V71.8237C206.909 71.7811 206.245 71.7531 205.555 71.7531C204.863 71.7531 204.197 71.7811 203.564 71.8237V71.3997C204.919 71.3291 204.904 71.2304 204.904 70.1291V63.6491C204.904 62.5477 204.919 62.4477 203.564 62.3771V61.9544C204.197 61.9957 204.863 62.0251 205.555 62.0251C206.245 62.0251 206.909 61.9957 207.587 61.9544V62.3771C206.231 62.4477 206.245 62.5477 206.245 63.6491V66.2611H211.895V63.6491C211.895 62.5477 211.908 62.4477 210.553 62.3771V61.9544C211.187 61.9957 211.852 62.0251 212.544 62.0251C213.235 62.0251 213.899 61.9957 214.576 61.9544V62.3771C213.22 62.4477 213.235 62.5477 213.235 63.6491V70.1291Z" fill="#231F20"/>
<path d="M217.827 69.8895C217.827 70.3975 217.841 70.7361 217.897 71.1041C218.42 71.1735 219.14 71.1735 219.817 71.1735C220.58 71.1735 221.357 71.1455 222.091 70.9335C222.161 70.7228 222.232 70.4681 222.261 70.2148L222.388 69.4375H222.853C222.797 69.7335 222.713 70.1295 222.713 70.5815V71.7535C222.189 71.8241 221.244 71.8095 220.368 71.8241C219.535 71.7815 218.688 71.7535 217.827 71.7535C216.965 71.7535 216.132 71.7815 215.272 71.8241V71.4001C215.977 71.3721 216.485 71.0748 216.485 70.1295V63.6481C216.485 62.5468 216.5 62.4481 215.144 62.3775V61.9535C216.005 61.9961 216.853 62.0241 217.728 62.0241C218.603 62.0241 219.465 61.9961 220.312 61.9535C221.201 61.9681 222.176 61.9535 222.656 62.0241C222.501 62.4908 222.443 62.9428 222.431 63.3948C222.431 63.6908 222.388 63.9308 222.388 64.2268H221.949C221.936 63.6775 221.851 63.2815 221.752 62.8441C221.073 62.6321 220.355 62.6041 219.648 62.6041C219.027 62.6041 218.363 62.6041 217.897 62.6748C217.841 63.0268 217.827 63.3521 217.827 63.8455V66.4868C220.905 66.5148 221.101 66.6841 221.116 65.3001H221.583V68.5615H221.116C221.116 66.9668 221.017 67.0508 217.827 67.1641V69.8895Z" fill="#231F20"/>
<path d="M226.286 70.1291C226.286 71.2304 226.272 71.3291 227.628 71.3997V71.8237C226.95 71.7811 226.286 71.7531 225.594 71.7531C224.903 71.7531 224.238 71.7811 223.604 71.8237V71.3997C224.959 71.3291 224.946 71.2304 224.946 70.1291V63.6491C224.946 62.5477 224.959 62.4477 223.604 62.3771V61.9544C224.238 61.9957 224.903 62.0251 225.594 62.0251C226.286 62.0251 226.95 61.9957 227.628 61.9544V62.3771C226.272 62.4477 226.286 62.5477 226.286 63.6491V70.1291Z" fill="#231F20"/>
<path d="M237.215 70.3549V63.3376C237.215 62.5189 236.961 62.3909 236.101 62.3909L235.874 62.3776V61.9536C236.439 61.9963 237.005 62.0243 237.569 62.0243C238.133 62.0243 238.698 61.9963 239.249 61.9536V62.3776L239.022 62.3909C238.133 62.3909 237.865 62.5189 237.865 63.3376V71.5123L237.909 72.0349L236.791 71.8376L229.971 63.5496V70.4403C229.971 71.2589 230.241 71.3856 231.131 71.3856L231.355 71.4003V71.8229C230.806 71.7816 230.241 71.7536 229.677 71.7536C229.111 71.7536 228.546 71.7816 227.981 71.8229V71.4003L228.209 71.3856C229.069 71.3856 229.322 71.2589 229.322 70.4403V63.3376C229.322 62.5189 229.097 62.3909 228.306 62.3776H228.109V61.9536C228.518 61.9963 228.913 62.0243 229.337 62.0243C229.746 62.0243 230.142 61.9963 230.551 61.9536L237.215 70.3549Z" fill="#231F20"/>
<path d="M260.882 71.0649C259.77 71.6996 258.004 72.1063 256.892 72.1063C252.992 72.1063 249.744 69.8116 249.744 65.6289C249.744 61.5343 253.046 59.2396 256.54 59.2396C258.094 59.2396 259.646 59.6103 261.128 60.0343C260.951 60.9156 260.846 61.7983 260.74 62.6809H260.228C260.175 61.5516 260.458 61.1463 259.416 60.6343C258.692 60.2809 257.846 59.9809 256.575 59.9809C253.663 59.9809 251.651 62.0463 251.651 65.2396C251.651 68.7703 253.946 71.2063 257.494 71.2063C258.763 71.2063 260.016 70.7996 261.075 70.0943L261.235 70.2703L260.882 71.0649Z" fill="#231F20"/>
<path d="M270.588 67.0088C270.588 64.2128 269.33 62.3488 266.705 62.3488C264.248 62.3488 263.133 64.0581 263.133 66.3741C263.133 68.8448 264.29 71.4288 267.085 71.4288C269.444 71.2728 270.588 69.6061 270.588 67.0088ZM272.098 66.5715C272.098 69.6061 269.726 72.0355 266.633 72.0355C263.768 72.0355 261.622 70.0581 261.622 66.8395C261.622 63.9595 263.656 61.6995 266.93 61.7421C269.952 61.7421 272.098 63.4368 272.098 66.5715" fill="#231F20"/>
<path d="M278.682 71.9364H278.401L274.461 63.6484V70.4404C274.461 71.2591 274.727 71.3857 275.618 71.3857L275.845 71.4004V71.8231C275.293 71.7817 274.727 71.7524 274.163 71.7524C273.599 71.7524 273.034 71.7817 272.469 71.8231V71.4004L272.695 71.3857C273.557 71.3857 273.811 71.2591 273.811 70.4404V63.3377C273.811 62.5191 273.557 62.3911 272.695 62.3911L272.469 62.3777V61.9537C272.907 61.9964 273.359 62.0244 273.811 62.0244C274.263 62.0244 274.715 61.9964 275.151 61.9537L278.879 69.8191L281.789 63.8324C282.099 63.1817 282.367 62.5751 282.551 61.9537C282.989 61.9964 283.441 62.0244 283.893 62.0244C284.345 62.0244 284.795 61.9964 285.234 61.9537V62.3777H285.022C284.175 62.3911 283.921 62.5191 283.921 63.3377V70.1297C283.921 71.2311 283.906 71.3297 285.262 71.4004V71.8231C284.585 71.7817 283.921 71.7524 283.229 71.7524C282.537 71.7524 281.873 71.7817 281.238 71.8231V71.4004C282.594 71.3297 282.579 71.2311 282.579 70.1297V63.6484L278.682 71.9364Z" fill="#231F20"/>
<path d="M286.438 63.6484C286.438 62.5471 286.451 62.4484 285.095 62.3777V61.9537C285.915 61.9964 286.734 62.0244 287.58 62.0244C288.414 62.0244 289.232 61.9964 290.052 61.9537C291.42 61.9537 292.974 62.5471 292.974 64.1431C292.974 65.9071 291.45 67.0657 289.684 67.1364C289.303 67.1497 288.964 67.1071 288.767 67.0511L288.612 66.5284C288.823 66.5857 289.162 66.6417 289.515 66.6551C290.672 66.6977 291.562 65.8231 291.562 64.6231C291.562 63.1537 290.672 62.4764 289.262 62.4764C288.78 62.4764 288.315 62.5897 287.863 62.6737C287.778 62.9137 287.778 63.2111 287.778 63.6484V70.1284C287.778 71.2311 287.764 71.3297 289.12 71.4004V71.8231C288.443 71.7817 287.778 71.7524 287.086 71.7524C286.395 71.7524 285.731 71.7817 285.095 71.8231V71.4004C286.451 71.3297 286.438 71.2311 286.438 70.1284V63.6484Z" fill="#231F20"/>
<path d="M297.224 67.9549L295.459 63.7469L293.693 67.9549H297.224ZM299.441 69.9029C299.624 70.3549 299.808 70.8203 300.161 71.1603C300.316 71.3016 300.613 71.3856 300.937 71.4003V71.8229C300.316 71.7816 299.695 71.7536 299.06 71.7536C298.424 71.7536 297.804 71.7816 297.181 71.8229V71.4003C297.548 71.3856 297.931 71.3709 298.24 71.2029C298.437 71.1029 298.452 70.8776 298.34 70.6229L297.479 68.5616H293.468C293.299 68.9429 292.523 70.6229 292.523 70.9336C292.523 71.4003 293.213 71.3296 293.721 71.4003V71.8229C293.185 71.7816 292.649 71.7536 292.097 71.7536C291.548 71.7536 291.011 71.7816 290.475 71.8229V71.4003C291.267 71.2443 291.364 71.3709 291.703 70.6376L292.396 69.1829L294.301 64.9189C294.753 63.9163 295.219 62.8856 295.585 61.8696H296.037L299.441 69.9029Z" fill="#231F20"/>
<path d="M310.047 70.3549V63.3376C310.047 62.5189 309.793 62.3909 308.931 62.3909L308.706 62.3776V61.9536C309.27 61.9963 309.835 62.0243 310.399 62.0243C310.965 62.0243 311.53 61.9963 312.081 61.9536V62.3776L311.855 62.3909C310.965 62.3909 310.697 62.5189 310.697 63.3376V71.5123L310.739 72.0349L309.623 71.8376L302.803 63.5496V70.4403C302.803 71.2589 303.073 71.3856 303.962 71.3856L304.187 71.4003V71.8229C303.637 71.7816 303.073 71.7536 302.507 71.7536C301.943 71.7536 301.378 71.7816 300.813 71.8229V71.4003L301.039 71.3856C301.901 71.3856 302.154 71.2589 302.154 70.4403V63.3376C302.154 62.5189 301.929 62.3909 301.138 62.3776H300.939V61.9536C301.349 61.9963 301.745 62.0243 302.169 62.0243C302.578 62.0243 302.974 61.9963 303.382 61.9536L310.047 70.3549Z" fill="#231F20"/>
<path d="M317.068 66.9384L318.521 64.6371C319.058 63.7331 319.581 62.8584 320.048 61.9544H321.177V62.1664C319.99 63.5357 318.281 65.9224 317.702 67.1784C317.534 67.5451 317.505 67.8984 317.505 68.2371V70.1291C317.505 71.2304 317.492 71.3291 318.846 71.3997V71.8237C318.169 71.7811 317.505 71.7531 316.814 71.7531C316.122 71.7531 315.458 71.7811 314.822 71.8237V71.3997C316.178 71.3291 316.164 71.2304 316.164 70.1291V68.0544C316.164 67.9411 316.164 67.7717 316.094 67.6157L314.4 64.6504C313.933 63.8464 313.072 62.4624 312.069 62.5757V62.1664L313.566 61.8691C313.976 61.7984 314.188 62.0384 314.428 62.3357C314.653 62.6317 314.852 62.9277 315.049 63.2531L317.068 66.9384Z" fill="#231F20"/>
<path d="M104.542 67.0513L102.335 61.7913L100.13 67.0513H104.542ZM107.312 69.4873C107.542 70.0513 107.771 70.634 108.214 71.058C108.407 71.234 108.778 71.3407 109.184 71.358V71.8873C108.407 71.834 107.63 71.7993 106.836 71.7993C106.042 71.7993 105.264 71.834 104.488 71.8873V71.358C104.947 71.3407 105.423 71.322 105.814 71.1113C106.06 70.9873 106.076 70.7047 105.936 70.3873L104.859 67.81H99.8469C99.6349 68.2873 98.6643 70.3873 98.6643 70.7753C98.6643 71.358 99.5296 71.27 100.164 71.358V71.8873C99.4936 71.834 98.8243 71.7993 98.1349 71.7993C97.4469 71.7993 96.7749 71.834 96.1056 71.8873V71.358C97.0936 71.1633 97.2163 71.322 97.6403 70.4047L98.5056 68.5873L100.888 63.2567C101.454 62.0033 102.035 60.7153 102.494 59.4447H103.059L107.312 69.4873Z" fill="#231F20"/>
<path d="M125.935 60.7361V59.8588H113.874V69.0255C115.563 69.0255 117.405 67.9281 119.239 65.0495C121.083 62.1561 123.767 60.7361 125.935 60.7361Z" fill="#DC0021"/>
<path d="M113.875 70.6631V71.5404H125.936V62.3737C124.247 62.3737 122.406 63.4711 120.571 66.3497C118.727 69.2431 116.043 70.6631 113.875 70.6631Z" fill="#1A64B7"/>
</svg>
