<svg xmlns="http://www.w3.org/2000/svg" xmlns:xlink="http://www.w3.org/1999/xlink" width="210.99" height="52.757" viewBox="0 0 210.99 52.757">
  <defs>
    <clipPath id="clip-path">
      <rect width="210.989" height="52.757" fill="none"/>
    </clipPath>
  </defs>
  <g id="LOGO_Desktop" transform="translate(0 0)" clip-path="url(#clip-path)">
    <g id="Gruppe_18" data-name="Gruppe 18" transform="translate(0 6.088)">
      <path id="Pfad_45" data-name="Pfad 45" d="M20,44.58a20,20,0,1,1,20-20A20.023,20.023,0,0,1,20,44.58Z" transform="translate(0 -4.668)" fill="#b1c127"/>
    </g>
    <path id="Pfad_51" data-name="Pfad 51" d="M17.469,13.93c-1.688,0-3.669-1.01-5.742-1.01s-3.044.6-3.709,2.433c-.691,1.888-1.449,9.664,1,15.525,1.608,3.841,5.556-5.53,8.454-5.53s7.151,9.384,8.76,5.53c2.459-5.915,1.356-13.811.678-15.7-.665-1.834-1.688-2.26-3.775-2.26s-3.974,1.01-5.663,1.01" transform="translate(2.416 4.254)" fill="#fff"/>
    <path id="Pfad_52" data-name="Pfad 52" d="M87.773,10.99V22.807a17.093,17.093,0,0,1-.465,5.237c-.625,1.662-1.768,3.376-5.383,3.376h0v0h.013c-3.443,0-5.157-1.741-5.649-4.094a21.869,21.869,0,0,1-.213-4.519V10.99H71.49V25.6c0,5.3,3.323,9.7,10.448,9.7h0c7.125,0,10.448-4.519,10.448-9.7V10.99Z" transform="translate(23.537 3.618)" fill="#575756"/>
    <path id="Pfad_53" data-name="Pfad 53" d="M127.873,35.076H107.35V31.181l14.874-16.336H107.709V10.99h20.165v3.655L113.252,31.208H127.86v3.868Z" transform="translate(35.343 3.618)" fill="#575756"/>
    <g id="Gruppe_19" data-name="Gruppe 19" transform="translate(72.576 45.407)">
      <path id="Pfad_21" data-name="Pfad 21" d="M58.92,39.949V34.712h-.027l-1.608,5.237h-.492l-1.608-5.237h-.027v5.237H54.6V34.22h.984l1.462,4.626h.013l1.436-4.626h1v5.729Z" transform="translate(-54.6 -34.14)" fill="#575756"/>
      <path id="Pfad_22" data-name="Pfad 22" d="M60.618,34.22v5.729H59.98V34.22Z" transform="translate(-52.829 -34.14)" fill="#575756"/>
      <path id="Pfad_23" data-name="Pfad 23" d="M63.993,34.765v5.184h-.638V34.765H61.64V34.22h4.054v.545Z" transform="translate(-52.282 -34.14)" fill="#575756"/>
      <path id="Pfad_24" data-name="Pfad 24" d="M68.594,35.7a1.3,1.3,0,0,0-1.329-1c-.665,0-1.063.319-1.077.891-.013,1.249,3.217.944,3.217,2.778,0,.837-.465,1.675-1.927,1.675A2.124,2.124,0,0,1,65.43,38.56l.585-.213a1.57,1.57,0,0,0,1.5,1.156c.837,0,1.263-.439,1.263-1.037,0-1.462-3.217-1.037-3.217-2.831a1.557,1.557,0,0,1,1.715-1.475,1.878,1.878,0,0,1,1.888,1.409Z" transform="translate(-51.034 -34.16)" fill="#575756"/>
      <path id="Pfad_25" data-name="Pfad 25" d="M70.358,34.22v4.041a1.378,1.378,0,0,0,2.738,0V34.22h.638v4a2.018,2.018,0,0,1-4.014,0v-4Z" transform="translate(-49.622 -34.14)" fill="#575756"/>
      <path id="Pfad_26" data-name="Pfad 26" d="M75.078,34.22v5.729H74.44V34.22Z" transform="translate(-48.068 -34.14)" fill="#575756"/>
      <path id="Pfad_27" data-name="Pfad 27" d="M82.554,38.251a1.988,1.988,0,0,1-2.02,1.794c-1.289,0-2.193-.93-2.193-2.938,0-1.861.811-2.938,2.193-2.938a1.91,1.91,0,0,1,1.941,1.662l-.6.173c-.213-.811-.572-1.3-1.422-1.3-.824,0-1.475.758-1.475,2.406s.651,2.406,1.608,2.406c.877,0,1.223-.665,1.4-1.369Z" transform="translate(-46.784 -34.157)" fill="#575756"/>
      <path id="Pfad_28" data-name="Pfad 28" d="M86.694,34.22v5.729h-.638V37.224H83.318v2.725H82.68V34.22h.638v2.459h2.738V34.22Z" transform="translate(-45.355 -34.14)" fill="#575756"/>
      <path id="Pfad_29" data-name="Pfad 29" d="M90.729,34.22v.545h-2.8v1.914h1.994v.545H87.925v2.193h2.964v.545H87.3V34.233h3.429Z" transform="translate(-43.834 -34.14)" fill="#575756"/>
      <path id="Pfad_30" data-name="Pfad 30" d="M95.56,39.949V34.712h-.027l-1.608,5.237h-.479l-1.608-5.237h-.027v5.237H91.24V34.22h.984l1.462,4.626H93.7l1.436-4.626h1v5.729Z" transform="translate(-42.537 -34.14)" fill="#575756"/>
      <path id="Pfad_31" data-name="Pfad 31" d="M97.248,34.22v5.729H96.61V34.22Z" transform="translate(-40.769 -34.14)" fill="#575756"/>
      <path id="Pfad_32" data-name="Pfad 32" d="M102.6,38.251a1.988,1.988,0,0,1-2.02,1.794c-1.289,0-2.193-.93-2.193-2.938,0-1.861.811-2.938,2.193-2.938a1.91,1.91,0,0,1,1.941,1.662l-.585.173c-.213-.811-.572-1.3-1.422-1.3-.824,0-1.475.758-1.475,2.406s.651,2.406,1.608,2.406c.877,0,1.223-.665,1.4-1.369Z" transform="translate(-40.183 -34.157)" fill="#575756"/>
      <path id="Pfad_33" data-name="Pfad 33" d="M102.24,39.949l1.755-5.729h.944l1.755,5.729h-.665l-.545-1.794h-2.06l-.545,1.794Zm1.369-2.326h1.741l-.824-2.951h-.093Z" transform="translate(-38.915 -34.14)" fill="#575756"/>
      <path id="Pfad_34" data-name="Pfad 34" d="M106.69,39.949V34.22h.638V39.4h2.712v.545Z" transform="translate(-37.45 -34.14)" fill="#575756"/>
      <path id="Pfad_35" data-name="Pfad 35" d="M113.114,35.7a1.3,1.3,0,0,0-1.329-1c-.665,0-1.063.319-1.077.891-.013,1.249,3.217.944,3.217,2.778,0,.837-.465,1.675-1.927,1.675a2.124,2.124,0,0,1-2.047-1.489l.585-.213a1.571,1.571,0,0,0,1.5,1.156c.837,0,1.263-.439,1.263-1.037,0-1.462-3.217-1.037-3.217-2.831A1.557,1.557,0,0,1,111.8,34.16a1.878,1.878,0,0,1,1.887,1.409Z" transform="translate(-36.377 -34.16)" fill="#575756"/>
      <path id="Pfad_36" data-name="Pfad 36" d="M120.287,37.214v2.752h-.518v-.518h-.013a1.832,1.832,0,0,1-1.5.6c-1.3,0-2.233-.93-2.233-2.938s.93-2.938,2.233-2.938a2.005,2.005,0,0,1,2.06,1.675l-.6.12c-.279-.917-.758-1.263-1.422-1.263-.837,0-1.635.572-1.635,2.406s.8,2.406,1.635,2.406a1.224,1.224,0,0,0,1.369-1.263v-.479h-1.289v-.545h1.914Z" transform="translate(-34.378 -34.157)" fill="#575756"/>
      <path id="Pfad_37" data-name="Pfad 37" d="M120.6,39.949V34.22h1.834c1.236,0,1.914.558,1.914,1.5a1.481,1.481,0,0,1-1.143,1.489l1.21,2.725h-.691l-1.156-2.605h-1.343v2.605H120.6Zm.638-3.137h1.156c.877,0,1.329-.332,1.329-1.05,0-.771-.518-1-1.343-1h-1.143Z" transform="translate(-32.87 -34.14)" fill="#575756"/>
      <path id="Pfad_38" data-name="Pfad 38" d="M126.823,34.16c1.409,0,2.233,1.037,2.233,2.938s-.837,2.938-2.233,2.938S124.59,39,124.59,37.1,125.427,34.16,126.823,34.16Zm0,5.344c1.01,0,1.608-.771,1.608-2.406s-.6-2.406-1.608-2.406-1.608.771-1.608,2.406S125.813,39.5,126.823,39.5Z" transform="translate(-31.557 -34.16)" fill="#575756"/>
      <path id="Pfad_39" data-name="Pfad 39" d="M129.848,34.22v4.041a1.378,1.378,0,0,0,2.738,0V34.22h.638v4a2.018,2.018,0,0,1-4.014,0v-4Z" transform="translate(-30.036 -34.14)" fill="#575756"/>
      <path id="Pfad_40" data-name="Pfad 40" d="M133.77,39.949V34.22h1.994a1.538,1.538,0,0,1,1.755,1.608c0,.957-.665,1.569-2.1,1.569h-1.01v2.552Zm.638-3.1h1.077c1.05,0,1.409-.359,1.409-1.05s-.4-1.05-1.263-1.05h-1.223Z" transform="translate(-28.534 -34.14)" fill="#575756"/>
    </g>
    <path id="Pfad_54" data-name="Pfad 54" d="M129.966,31.128v-5.9h14.1V21.557h-14.1V14.925h15.22V10.99H125.46V35.076h20.071V31.128Z" transform="translate(41.306 3.618)" fill="#575756"/>
    <path id="Pfad_55" data-name="Pfad 55" d="M158.536,24.359a5.942,5.942,0,0,0,4.387-6.181C162.883,14.217,160.69,11,155.24,11H143.29v3.709h9.371l1.781.013c2.658,0,3.895,1.21,3.895,3.469s-1.1,3.376-4.692,3.376h-.984l-9.371.013V35.086h4.586V25.223h6.3l4.546,9.85h5.091Z" transform="translate(47.176 3.622)" fill="#575756"/>
    <rect id="Rechteck_6" data-name="Rechteck 6" width="4.586" height="24.072" transform="translate(72.59 14.608)" fill="#575756"/>
    <path id="Pfad_56" data-name="Pfad 56" d="M90.41,35.076V10.99H95V31.208h14.7v3.855Z" transform="translate(29.766 3.618)" fill="#575756"/>
    <path id="Pfad_57" data-name="Pfad 57" d="M64.107,22.847,72.043,10.99H67.111L60,21.77V23.9l8.467,11.179h5.091Z" transform="translate(19.754 3.618)" fill="#575756"/>
    <rect id="Rechteck_7" data-name="Rechteck 7" width="0.532" height="52.757" transform="translate(55.748)" fill="#575756"/>
  </g>
</svg>
